<svg class="sbv-video-mute" viewBox="0 0 64 64" xmlns="http://www.w3.org/2000/svg" aria-hidden="true" role="img">
    <circle cx="32" cy="32" r="32"/>
    <path d="m 14,25 v 14 h 8 l 10,6 v -26 l -10,6 z m 2,2 h 5 v 10 h -5 z m 7,0 7,-4 0,18 -7,-4 z"/>
    <path data-itemid="sbv-video-mute-icon" d="m 42,32 -6,6 1.6,1.6 6,-6 6,6 1.6,-1.6 -6,-6 6,-6 -1.6,-1.6 -6,6 -6,-6 -1.6,1.6 z" style="fill-opacity: 1;"/>
    <g data-itemid="sbv-video-unmute-icon" style="fill-opacity: 0;">
        <path d="m 38,26 a 20 12 0 0 1 0 12 l 2 2 a 40 20 0 0 0 0 -16 z"/>
        <path d="m 43,21 a 48 25 0 0 1 0 22 l 2 2 a 53 29 0 0 0 0 -26 z"/>
    </g>
</svg>